<svg width="163" height="60" viewBox="0 0 163 60" fill="none" xmlns="http://www.w3.org/2000/svg">
<path d="M83.8402 16.3031V20.787H72.2932V27.8898H81.1419V32.2943H72.2932V44H66.7379V16.3031H83.8402ZM97.5408 44.3571C95.4245 44.3571 93.5198 43.8942 91.8268 42.9683C90.1338 42.016 88.7979 40.6801 87.8191 38.9606C86.8668 37.2411 86.3906 35.2571 86.3906 33.0085C86.3906 30.76 86.88 28.776 87.8588 27.0565C88.864 25.337 90.2264 24.0143 91.9459 23.0884C93.6653 22.1361 95.5832 21.6599 97.6995 21.6599C99.8158 21.6599 101.734 22.1361 103.453 23.0884C105.173 24.0143 106.522 25.337 107.501 27.0565C108.506 28.776 109.008 30.76 109.008 33.0085C109.008 35.2571 108.493 37.2411 107.461 38.9606C106.456 40.6801 105.08 42.016 103.334 42.9683C101.615 43.8942 99.6835 44.3571 97.5408 44.3571ZM97.5408 39.5161C98.546 39.5161 99.4851 39.278 100.358 38.8019C101.258 38.2992 101.972 37.5585 102.501 36.5798C103.03 35.601 103.294 34.4106 103.294 33.0085C103.294 30.9187 102.739 29.3183 101.628 28.2072C100.543 27.0697 99.2074 26.5009 97.6201 26.5009C96.0329 26.5009 94.697 27.0697 93.6124 28.2072C92.5543 29.3183 92.0252 30.9187 92.0252 33.0085C92.0252 35.0984 92.5411 36.712 93.5727 37.8495C94.6309 38.9606 95.9536 39.5161 97.5408 39.5161ZM121.694 21.6599C123.334 21.6599 124.776 21.9906 126.019 22.6519C127.263 23.2868 128.241 24.1201 128.956 25.1518V22.0171H134.551V44.1587C134.551 46.1956 134.14 48.0077 133.32 49.5949C132.5 51.2086 131.27 52.4784 129.63 53.4043C127.99 54.3566 126.006 54.8327 123.678 54.8327C120.557 54.8327 117.991 54.1053 115.98 52.6503C113.996 51.1954 112.872 49.2114 112.607 46.6983H118.123C118.414 47.7035 119.035 48.4971 119.988 49.0791C120.967 49.6875 122.144 49.9917 123.519 49.9917C125.133 49.9917 126.442 49.5023 127.448 48.5236C128.453 47.5712 128.956 46.1163 128.956 44.1587V40.7462C128.241 41.7779 127.249 42.6376 125.98 43.3254C124.736 44.0132 123.308 44.3571 121.694 44.3571C119.842 44.3571 118.149 43.881 116.615 42.9286C115.081 41.9763 113.864 40.6404 112.964 38.9209C112.091 37.175 111.655 35.1777 111.655 32.9292C111.655 30.7071 112.091 28.7363 112.964 27.0168C113.864 25.2973 115.067 23.9746 116.575 23.0487C118.11 22.1229 119.816 21.6599 121.694 21.6599ZM128.956 33.0085C128.956 31.6594 128.691 30.5087 128.162 29.5563C127.633 28.5775 126.919 27.8368 126.019 27.3342C125.12 26.8052 124.154 26.5406 123.123 26.5406C122.091 26.5406 121.139 26.7919 120.266 27.2945C119.393 27.7972 118.678 28.5379 118.123 29.5167C117.594 30.469 117.329 31.6065 117.329 32.9292C117.329 34.2518 117.594 35.4158 118.123 36.421C118.678 37.3998 119.393 38.1538 120.266 38.6828C121.165 39.2119 122.117 39.4764 123.123 39.4764C124.154 39.4764 125.12 39.2251 126.019 38.7225C126.919 38.1934 127.633 37.4527 128.162 36.5004C128.691 35.5216 128.956 34.3577 128.956 33.0085ZM149.738 44.3571C147.621 44.3571 145.717 43.8942 144.024 42.9683C142.331 42.016 140.995 40.6801 140.016 38.9606C139.064 37.2411 138.587 35.2571 138.587 33.0085C138.587 30.76 139.077 28.776 140.056 27.0565C141.061 25.337 142.423 24.0143 144.143 23.0884C145.862 22.1361 147.78 21.6599 149.896 21.6599C152.013 21.6599 153.93 22.1361 155.65 23.0884C157.369 24.0143 158.719 25.337 159.697 27.0565C160.703 28.776 161.205 30.76 161.205 33.0085C161.205 35.2571 160.689 37.2411 159.658 38.9606C158.652 40.6801 157.277 42.016 155.531 42.9683C153.811 43.8942 151.88 44.3571 149.738 44.3571ZM149.738 39.5161C150.743 39.5161 151.682 39.278 152.555 38.8019C153.454 38.2992 154.169 37.5585 154.698 36.5798C155.227 35.601 155.491 34.4106 155.491 33.0085C155.491 30.9187 154.936 29.3183 153.825 28.2072C152.74 27.0697 151.404 26.5009 149.817 26.5009C148.23 26.5009 146.894 27.0697 145.809 28.2072C144.751 29.3183 144.222 30.9187 144.222 33.0085C144.222 35.0984 144.738 36.712 145.77 37.8495C146.828 38.9606 148.15 39.5161 149.738 39.5161Z" fill="#C2C2C2"/>
<path fill-rule="evenodd" clip-rule="evenodd" d="M30.0538 44.2236C30.7133 41.8119 29.4331 36.854 29.4331 36.854C29.4331 36.854 28.5045 40.8932 27.0536 42.3858C25.8159 43.6592 24.2994 44.5424 22.1245 44.7746C23.9027 43.9107 25.1256 42.11 25.1256 40.0284C25.1256 37.1064 22.7159 34.7375 19.7435 34.7375C16.771 34.7375 14.3613 37.1064 14.3613 40.0284C14.3613 40.8265 14.5411 41.5833 14.863 42.2618C13.0038 40.7805 12.7115 38.4059 12.7115 38.4059C12.7115 38.4059 10.6355 47.0252 16.3558 51.0794C22.076 55.134 33.2815 51.6491 33.2815 51.6491C33.2815 51.6491 17.2456 62.9324 5.36273 50.6518C-4.87342 40.0732 2.69107 26.146 2.69107 26.146C2.69107 26.146 2.36439 27.4379 2.36439 28.9377C2.36439 30.4375 3.17755 31.5786 3.17755 31.5786C3.17755 31.5786 5.60315 26.4658 7.49087 24.3866C9.27747 22.4188 11.5171 20.8228 13.4515 19.4443C14.9405 18.3831 16.2488 17.4508 17.0301 16.577C21.3336 11.765 18.6949 3 18.6949 3C18.6949 3 23.5461 7.27673 24.9005 12.8002C25.4167 14.9056 25.0846 17.3012 24.7877 19.4434C24.3055 22.9211 23.9159 25.7312 27.3987 25.5489C33.0268 25.2541 28.1362 16.577 28.1362 16.577C28.1362 16.577 40.9028 23.2871 39.9491 35.0228C38.9954 46.7586 25.9944 49.4264 25.9944 49.4264C25.9944 49.4264 29.3939 46.6352 30.0538 44.2236Z" fill="#C2C2C2"/>
</svg>
