<svg width="206" height="60" viewBox="0 0 206 60" fill="none" xmlns="http://www.w3.org/2000/svg">
<path d="M86.0226 24.636C85.3877 23.472 84.5148 22.5858 83.4037 21.9774C82.2927 21.3689 80.9964 21.0647 79.515 21.0647C77.8749 21.0647 76.42 21.4351 75.1502 22.1758C73.8804 22.9165 72.8884 23.9746 72.1742 25.3502C71.4599 26.7258 71.1028 28.313 71.1028 30.1119C71.1028 31.9636 71.4599 33.5773 72.1742 34.9529C72.9149 36.3285 73.9333 37.3866 75.2296 38.1273C76.5258 38.868 78.0336 39.2384 79.7531 39.2384C81.8694 39.2384 83.6021 38.6828 84.9513 37.5718C86.3004 36.4343 87.1866 34.8603 87.6098 32.8498H78.0865V28.604H93.0857V33.445C92.7154 35.3761 91.9218 37.1617 90.7049 38.8019C89.488 40.442 87.9141 41.7647 85.9829 42.7699C84.0783 43.7487 81.9355 44.2381 79.5547 44.2381C76.8829 44.2381 74.4624 43.6429 72.2932 42.4525C70.1505 41.2356 68.4574 39.5558 67.2141 37.4131C65.9972 35.2703 65.3888 32.8366 65.3888 30.1119C65.3888 27.3871 65.9972 24.9534 67.2141 22.8107C68.4574 20.6415 70.1505 18.9617 72.2932 17.7713C74.4624 16.5544 76.8697 15.946 79.515 15.946C82.6366 15.946 85.3481 16.7131 87.6495 18.2474C89.951 19.7553 91.5382 21.8848 92.4112 24.636H86.0226ZM102.751 25.4296C103.465 24.2656 104.391 23.353 105.529 22.6916C106.693 22.0303 108.015 21.6996 109.497 21.6996V27.5326H108.029C106.283 27.5326 104.96 27.9427 104.06 28.7627C103.187 29.5828 102.751 31.0113 102.751 33.0482V44H97.1958V22.0171H102.751V25.4296ZM111.81 32.9292C111.81 30.7071 112.246 28.7363 113.119 27.0168C114.019 25.2973 115.222 23.9746 116.73 23.0487C118.265 22.1229 119.971 21.6599 121.849 21.6599C123.489 21.6599 124.918 21.9906 126.135 22.6519C127.378 23.3133 128.37 24.1466 129.111 25.1518V22.0171H134.706V44H129.111V40.7859C128.396 41.8176 127.404 42.6773 126.135 43.3651C124.891 44.0265 123.45 44.3571 121.809 44.3571C119.958 44.3571 118.265 43.881 116.73 42.9286C115.222 41.9763 114.019 40.6404 113.119 38.9209C112.246 37.175 111.81 35.1777 111.81 32.9292ZM129.111 33.0085C129.111 31.6594 128.846 30.5087 128.317 29.5563C127.788 28.5775 127.074 27.8368 126.174 27.3342C125.275 26.8052 124.309 26.5406 123.278 26.5406C122.246 26.5406 121.294 26.7919 120.421 27.2945C119.548 27.7972 118.833 28.5379 118.278 29.5167C117.749 30.469 117.484 31.6065 117.484 32.9292C117.484 34.2518 117.749 35.4158 118.278 36.421C118.833 37.3998 119.548 38.1538 120.421 38.6828C121.32 39.2119 122.272 39.4764 123.278 39.4764C124.309 39.4764 125.275 39.2251 126.174 38.7225C127.074 38.1934 127.788 37.4527 128.317 36.5004C128.846 35.5216 129.111 34.3577 129.111 33.0085ZM167.431 21.6996C170.13 21.6996 172.299 22.5329 173.939 24.1995C175.605 25.8396 176.439 28.1411 176.439 31.1039V44H170.884V31.8578C170.884 30.1383 170.447 28.8289 169.574 27.9294C168.701 27.0036 167.511 26.5406 166.003 26.5406C164.495 26.5406 163.291 27.0036 162.392 27.9294C161.519 28.8289 161.082 30.1383 161.082 31.8578V44H155.527V31.8578C155.527 30.1383 155.091 28.8289 154.218 27.9294C153.345 27.0036 152.154 26.5406 150.646 26.5406C149.112 26.5406 147.895 27.0036 146.996 27.9294C146.123 28.8289 145.686 30.1383 145.686 31.8578V44H140.131V22.0171H145.686V24.6756C146.401 23.7498 147.313 23.0223 148.424 22.4932C149.562 21.9641 150.805 21.6996 152.154 21.6996C153.874 21.6996 155.408 22.07 156.757 22.8107C158.106 23.5249 159.151 24.5566 159.892 25.9057C160.606 24.636 161.638 23.6175 162.987 22.8503C164.363 22.0832 165.844 21.6996 167.431 21.6996ZM180.282 32.9292C180.282 30.7071 180.718 28.7363 181.591 27.0168C182.491 25.2973 183.694 23.9746 185.202 23.0487C186.737 22.1229 188.443 21.6599 190.321 21.6599C191.961 21.6599 193.39 21.9906 194.606 22.6519C195.85 23.3133 196.842 24.1466 197.583 25.1518V22.0171H203.177V44H197.583V40.7859C196.868 41.8176 195.876 42.6773 194.606 43.3651C193.363 44.0265 191.921 44.3571 190.281 44.3571C188.43 44.3571 186.737 43.881 185.202 42.9286C183.694 41.9763 182.491 40.6404 181.591 38.9209C180.718 37.175 180.282 35.1777 180.282 32.9292ZM197.583 33.0085C197.583 31.6594 197.318 30.5087 196.789 29.5563C196.26 28.5775 195.546 27.8368 194.646 27.3342C193.747 26.8052 192.781 26.5406 191.75 26.5406C190.718 26.5406 189.765 26.7919 188.893 27.2945C188.02 27.7972 187.305 28.5379 186.75 29.5167C186.221 30.469 185.956 31.6065 185.956 32.9292C185.956 34.2518 186.221 35.4158 186.75 36.421C187.305 37.3998 188.02 38.1538 188.893 38.6828C189.792 39.2119 190.744 39.4764 191.75 39.4764C192.781 39.4764 193.747 39.2251 194.646 38.7225C195.546 38.1934 196.26 37.4527 196.789 36.5004C197.318 35.5216 197.583 34.3577 197.583 33.0085Z" fill="#C2C2C2"/>
<path fill-rule="evenodd" clip-rule="evenodd" d="M6.42072 45.7216C6.26664 45.5767 6.11424 45.4289 5.96362 45.2783C-1.98787 37.3269 -1.98787 24.4349 5.96362 16.4835C13.9151 8.53195 39.2515 8 39.2515 8C39.2515 8 42.71 37.3269 34.7584 45.2783C27.6964 52.3403 16.7378 53.1302 8.80394 47.6485L15.1967 39.8034L25.4162 37.5969L17.0741 36.7629L22.3756 31.3651L28.4102 30.0431L23.6384 28.6299L28.4102 20.0216L21.6227 27.6349L19.0016 23.9362L19.9243 30.0431L15.1967 35.3727L13.0053 28.6298V37.5969L6.42072 45.7216Z" fill="#C2C2C2"/>
</svg>
