<svg width="172" height="60" viewBox="0 0 172 60" fill="none" xmlns="http://www.w3.org/2000/svg">
<path d="M82.7212 38.7225H71.69L69.8647 44H64.0317L73.9915 16.2634H80.4594L90.4192 44H84.5465L82.7212 38.7225ZM81.2133 34.2783L77.2056 22.6916L73.1979 34.2783H81.2133ZM81.5307 10.5494L72.4043 14.7159V10.7478L81.5307 6.02586V10.5494ZM102.753 21.6599C104.393 21.6599 105.834 21.9906 107.078 22.6519C108.321 23.2868 109.3 24.1201 110.014 25.1518V22.0171H115.609V44.1587C115.609 46.1956 115.199 48.0077 114.379 49.5949C113.559 51.2086 112.329 52.4784 110.689 53.4043C109.049 54.3566 107.065 54.8327 104.737 54.8327C101.615 54.8327 99.0491 54.1053 97.0387 52.6503C95.0546 51.1954 93.9304 49.2114 93.6658 46.6983H99.1814C99.4724 47.7035 100.094 48.4971 101.046 49.0791C102.025 49.6875 103.202 49.9917 104.578 49.9917C106.192 49.9917 107.501 49.5023 108.506 48.5236C109.512 47.5712 110.014 46.1163 110.014 44.1587V40.7462C109.3 41.7779 108.308 42.6376 107.038 43.3254C105.795 44.0132 104.366 44.3571 102.753 44.3571C100.901 44.3571 99.2078 43.881 97.6735 42.9286C96.1392 41.9763 94.9224 40.6404 94.0229 38.9209C93.15 37.175 92.7135 35.1777 92.7135 32.9292C92.7135 30.7071 93.15 28.7363 94.0229 27.0168C94.9224 25.2973 96.126 23.9746 97.6339 23.0487C99.1682 22.1229 100.874 21.6599 102.753 21.6599ZM110.014 33.0085C110.014 31.6594 109.75 30.5087 109.221 29.5563C108.691 28.5775 107.977 27.8368 107.078 27.3342C106.178 26.8052 105.213 26.5406 104.181 26.5406C103.149 26.5406 102.197 26.7919 101.324 27.2945C100.451 27.7972 99.7369 28.5379 99.1814 29.5167C98.6523 30.469 98.3878 31.6065 98.3878 32.9292C98.3878 34.2518 98.6523 35.4158 99.1814 36.421C99.7369 37.3998 100.451 38.1538 101.324 38.6828C102.224 39.2119 103.176 39.4764 104.181 39.4764C105.213 39.4764 106.178 39.2251 107.078 38.7225C107.977 38.1934 108.691 37.4527 109.221 36.5004C109.75 35.5216 110.014 34.3577 110.014 33.0085ZM141.788 22.0171V44H136.193V41.2224C135.478 42.1747 134.539 42.9286 133.375 43.4842C132.238 44.0132 130.995 44.2778 129.645 44.2778C127.926 44.2778 126.405 43.9206 125.082 43.2064C123.759 42.4657 122.715 41.3943 121.947 39.9923C121.207 38.5638 120.836 36.8708 120.836 34.9132V22.0171H126.392V34.1196C126.392 35.8655 126.828 37.2147 127.701 38.167C128.574 39.0929 129.764 39.5558 131.272 39.5558C132.807 39.5558 134.01 39.0929 134.883 38.167C135.756 37.2147 136.193 35.8655 136.193 34.1196V22.0171H141.788ZM145.84 32.9292C145.84 30.7071 146.277 28.7363 147.15 27.0168C148.049 25.2973 149.253 23.9746 150.761 23.0487C152.295 22.1229 154.001 21.6599 155.879 21.6599C157.52 21.6599 158.948 21.9906 160.165 22.6519C161.408 23.3133 162.4 24.1466 163.141 25.1518V22.0171H168.736V44H163.141V40.7859C162.427 41.8176 161.435 42.6773 160.165 43.3651C158.922 44.0265 157.48 44.3571 155.84 44.3571C153.988 44.3571 152.295 43.881 150.761 42.9286C149.253 41.9763 148.049 40.6404 147.15 38.9209C146.277 37.175 145.84 35.1777 145.84 32.9292ZM163.141 33.0085C163.141 31.6594 162.876 30.5087 162.347 29.5563C161.818 28.5775 161.104 27.8368 160.205 27.3342C159.305 26.8052 158.34 26.5406 157.308 26.5406C156.276 26.5406 155.324 26.7919 154.451 27.2945C153.578 27.7972 152.864 28.5379 152.308 29.5167C151.779 30.469 151.515 31.6065 151.515 32.9292C151.515 34.2518 151.779 35.4158 152.308 36.421C152.864 37.3998 153.578 38.1538 154.451 38.6828C155.35 39.2119 156.303 39.4764 157.308 39.4764C158.34 39.4764 159.305 39.2251 160.205 38.7225C161.104 38.1934 161.818 37.4527 162.347 36.5004C162.876 35.5216 163.141 34.3577 163.141 33.0085Z" fill="#C2C2C2"/>
<path fill-rule="evenodd" clip-rule="evenodd" d="M29.1959 37.4568C29.1959 45.4888 22.6603 52 14.598 52C6.53573 52 0 45.4888 0 37.4568C0 29.645 13.8084 8.19078 14.5657 7.02002C14.583 6.99333 14.6131 6.99333 14.6304 7.02003C15.3877 8.19078 29.1959 29.645 29.1959 37.4568ZM12.1646 47.3375C4.75684 45.7165 6.02446 37.5108 6.02446 37.5108C6.02446 37.5108 8.04725 42.4643 12.9561 44.069C17.8648 45.6735 23.7969 43.32 23.7969 43.32C23.7969 43.32 19.5723 48.9583 12.1646 47.3375Z" fill="#C2C2C2"/>
</svg>
